<?xml version="1.0" standalone="no"?>
<!DOCTYPE svg PUBLIC "-//W3C//DTD SVG 1.0//EN" "http://www.w3.org/TR/2001/REC-SVG-20010904/DTD/svg10.dtd">
<svg xmlns="http://www.w3.org/2000/svg" xmlns:xlink="http://www.w3.org/1999/xlink" id="body_1" width="114" height="38">

<defs>
        <clipPath  id="1">

            <path clip-rule="evenodd" d="M0 0L1824 0L1824 608L0 608z" />        </clipPath>
</defs>

<g transform="matrix(0.0625 0 0 0.0625 0 0)">
	<g clip-path="url(#1)" >
		<g transform="matrix(1 0 0 1 9 0)">
			<g>
                <path d="M432.178 55.512C 351.22607 13.496063 254.89293 13.496063 173.94101 55.512L173.94101 55.512L303.05 184.621L422.379 303.95L551.507 174.822C 524.8815 123.77467 483.22968 82.12944 432.178 55.512z" stroke="none" fill="#FF9500" fill-rule="nonzero" />
                <path d="M303 423.374L183.689 304.066L54.56 433.173C 125.87245 570.38416 294.91257 623.8081 432.126 552.5L432.126 552.5L303 423.374z" stroke="none" fill="#4CD964" fill-rule="nonzero" />
                <path d="M551.508 174.936L422.379 304.064L303.049 423.374L432.179 552.5C 569.37537 481.17535 622.78845 312.14496 551.488 174.936L551.488 174.936L551.508 174.936z" stroke="none" fill="#007AFF" fill-rule="nonzero" />
                <path d="M173.889 55.512C 36.741 126.866 -16.674 295.851 54.56 433.058L54.56 433.058L183.688 303.95L303 184.62L173.889 55.512z" stroke="none" fill="#FF3B30" fill-rule="nonzero" />
                <path transform="matrix(0.7071067 -0.7071068 0.7071068 0.7071067 183.711 304.001)"  d="M0 0L168.747 0L168.747 168.747L0 168.747z" stroke="none" fill="#393A3D" fill-rule="nonzero" />
                <path d="M218.625 338.962L55.18 432.514L183.689 304.026L218.625 338.962z" stroke="none" fill="#000000" fill-rule="nonzero" fill-opacity="0.14901961" />
                <path d="M268.08 219.557L174.528 56.112L303.037 184.621L268.08 219.557z" stroke="none" fill="#000000" fill-rule="nonzero" fill-opacity="0.14901961" />
                <path d="M387.442 269.034L550.88696 175.482L422.379 303.991L387.442 269.034z" stroke="none" fill="#000000" fill-rule="nonzero" fill-opacity="0.14901961" />
                <path d="M337.989 388.437L431.54102 551.882L303.031 423.374L337.989 388.437z" stroke="none" fill="#000000" fill-rule="nonzero" fill-opacity="0.14901961" />
                <path d="M303.024 206.956L400.076 304.01L303.024 401.039L205.993 304.01L303.024 206.956z" stroke="none" fill="#FFFFFF" fill-rule="nonzero" />
			</g>
			<g transform="matrix(1 0 0 1 35.783 0)">
                <path d="M688.967 411L651.217 411L651.217 231.25L688.967 231.25L688.967 317.75L759.717 231.25L804.967 231.25L732.717 319.25L805.467 411L757.217 411L688.967 321.75L688.967 411z" stroke="none" fill="#FFFFFF" fill-rule="nonzero" />
                <path d="M954.967 231.25L954.967 262.5L892.967 262.5C 879.46704 262.5 869.00867 266.0417 861.592 273.125C 854.17535 280.20834 850.46704 290.6667 850.467 304.5L850.467 304.5L954.967 304.5L954.967 335.75L850.467 335.75C 850.46704 350.75 853.21704 361.2917 858.717 367.375C 864.21704 373.45834 869.34204 377.0417 874.092 378.125C 880.3067 379.3454 886.63513 379.89026 892.967 379.75L892.967 379.75L954.967 379.75L954.967 411L891.467 411C 879.46704 411 869.25867 409.95834 860.842 407.875C 852.42535 405.7917 843.96704 401.58334 835.467 395.25C 825.5699 386.97638 818.0973 376.17776 813.842 364C 809.50226 351.28766 807.3468 337.93213 807.467 324.5L807.467 324.5L807.967 313.75C 807.95374 307.36343 808.6242 300.99384 809.967 294.75C 811.2351 288.81003 812.90564 282.96332 814.967 277.25C 816.7607 272.17422 819.10815 267.31158 821.967 262.75C 825.38074 257.68332 829.31915 252.99074 833.717 248.75C 838.9775 243.52634 845.40405 239.62758 852.467 237.375C 859.174 235.1074 866.0795 233.4752 873.092 232.5C 879.5166 231.66673 885.9885 231.24919 892.467 231.25L892.467 231.25L954.967 231.25zM878.261 215.75L861.261 215.75L881.717 181L910.967 181L932.28296 215.75L915.28296 215.75L896.467 197.75z" stroke="none" fill="#FFFFFF" fill-rule="nonzero" />
                <path d="M1140.463 411L1101.213 411L1101.213 263L1043.713 263L1043.713 231.75L1198.463 231.75L1198.463 263L1140.463 263L1140.463 411z" stroke="none" fill="#FFFFFF" fill-rule="nonzero" />
                <path d="M1210.71 281.5C 1214.542 268.336 1219.7087 258.586 1226.21 252.25C 1232.7113 245.914 1238.7113 241.289 1244.21 238.375C 1249.7194 235.45685 1255.5505 233.19153 1261.585 231.625C 1266.9576 230.17584 1272.4312 229.13126 1277.96 228.5C 1283.527 227.96582 1289.1176 227.7155 1294.71 227.75C 1306.71 227.75002 1316.1683 228.62502 1323.085 230.375C 1330.0017 232.12502 1334.7517 233.41669 1337.335 234.25C 1341.14 235.64429 1344.8198 237.35873 1348.335 239.375C 1353.0626 241.94266 1357.3293 245.28001 1360.96 249.25C 1369.46 257.41803 1375.6267 268.04303 1379.46 281.125C 1383.2848 294.15637 1385.2212 307.66888 1385.21 321.25C 1385.1868 334.91077 1383.2513 348.5009 1379.46 361.625C 1375.624 375.04303 1369.3323 385.8347 1360.585 394C 1351.924 402.12015 1341.2739 407.81165 1329.71 410.5C 1318.4167 413.26645 1306.8369 414.69293 1295.21 414.75C 1284.3491 414.7859 1273.5228 413.527 1262.96 411C 1259.6835 410.39764 1256.4636 409.5195 1253.335 408.375C 1249.5992 406.91208 1245.9662 405.19995 1242.46 403.25C 1237.6968 400.60757 1233.2869 397.3736 1229.335 393.625C 1224.85 389.4569 1221.053 384.60526 1218.085 379.25C 1214.999 373.75 1212.0823 366.1667 1209.335 356.5C 1206.5876 346.83334 1205.2126 334.9167 1205.21 320.75C 1205.1316 307.4693 1206.9843 294.24765 1210.71 281.5zM1249.21 294.43C 1247.1317 303.08908 1246.1241 311.9704 1246.21 320.875C 1246.21 330.359 1247.835 341.54535 1251.085 354.434C 1254.335 367.32263 1260.7933 375.47363 1270.46 378.887C 1280.1267 382.297 1288.2933 384.00134 1294.96 384C 1301.3118 384.02246 1307.6313 383.09695 1313.71 381.254C 1328.0433 376.09802 1336.96 365.20334 1340.46 348.57C 1342.8325 339.78653 1344.0098 330.72314 1343.96 321.625C 1343.96 311.97702 1343.1683 304.11768 1341.585 298.047C 1340.0017 291.97632 1338.9183 288.10965 1338.335 286.447C 1337.282 283.81818 1336.0283 281.27438 1334.585 278.83798C 1332.4279 275.1346 1329.6838 271.806 1326.46 268.982C 1323.2687 266.00552 1319.4746 263.7502 1315.335 262.369C 1311.8635 261.23273 1308.312 260.35794 1304.71 259.75198C 1295.3456 258.29044 1285.7716 258.97427 1276.71 261.75198C 1263.71 266.40402 1254.5433 277.2967 1249.21 294.43z" stroke="none" fill="#FFFFFF" fill-rule="nonzero" />
                <path d="M1425.959 411L1385.959 411L1461.459 231.25L1501.459 231.25L1578.209 411L1536.209 411L1519.709 368L1441.459 368L1425.959 411zM1453.709 336.25L1507.459 336.25L1480.209 267.5zM1479.209 214.75L1461.959 214.75L1485.959 180L1521.959 180z" stroke="none" fill="#FFFFFF" fill-rule="nonzero" />
                <path d="M1629.707 411L1590.957 411L1590.957 231.25L1638.957 231.25L1712.207 360.75L1710.707 231.25L1748.707 231.25L1748.707 411L1705.207 411L1628.207 275.25L1629.707 411z" stroke="none" fill="#FFFFFF" fill-rule="nonzero" />
                <path transform="matrix(1 0 0 1 0 4.076)"  d="M946.3 187.924L929.05 187.924L953.05 153.174L989.05 153.174L946.3 187.924z" stroke="none" fill="#FFFFFF" fill-rule="nonzero" />
			</g>
		</g>
	</g>
</g>
</svg>